# xmcd
#
# Track frame offsets:
#	150
#	12961
#	28072
#	41853
#	60732
#	76771
#	94049
#	113999
#	130375
#	146877
#	162766
#
# Disc length: 2435 seconds
# Revision: 2
# Processed by: cddbd v1.5.2PL0 Copyright (c) Steve Scherf et al.
# Submitted via: dBpowerAMP V12.0
#
DISCID=9209810b
DTITLE=The Breakmen - The Breakmen
DYEAR=2007
DGENRE=Americana
TTITLE0=KM 19
TTITLE1=Whiskey Hollow Bound
TTITLE2=Didn't He Ramble
TTITLE3=Gonna Buy Me a Ticket
TTITLE4=Leavin' on a Midnight Train
TTITLE5=Mama Knows Best
TTITLE6=Sweetheart of the Rodeo
TTITLE7=Becoming a Poet
TTITLE8=Cocaine Blues
TTITLE9=Cool Me Down
TTITLE10=No More Cane
EXTD=
EXTT0=
EXTT1=
EXTT2=
EXTT3=
EXTT4=
EXTT5=
EXTT6=
EXTT7=
EXTT8=
EXTT9=
EXTT10=
PLAYORDER=
